<?xml version="1.0" encoding="UTF-8"?>
<svg id="Ebene_1" data-name="Ebene 1" xmlns="http://www.w3.org/2000/svg" version="1.1" xmlns:xlink="http://www.w3.org/1999/xlink" viewBox="0 0 1077.17 1077.17">
  <defs>
    <style>
      .cls-1 {
        fill: none;
      }

      .cls-1, .cls-2, .cls-3 {
        stroke-width: 0px;
      }

      .cls-2 {
        fill: #e30613;
      }

      .cls-4 {
        clip-path: url(#clippath);
      }

      .cls-3 {
        fill: #fff;
      }
    </style>
    <clipPath id="clippath">
      <rect class="cls-1" y="0" width="1077.17" height="1077.17"/>
    </clipPath>
  </defs>
  <rect class="cls-3" y="0" width="1077.17" height="1077.17"/>
  <polygon class="cls-2" points="609.437 482.771 517.026 482.771 457.68 909.517 550.108 909.517 609.437 482.771"/>
  <g class="cls-4">
    <path class="cls-2" d="M607.987,909.517l89.865-645.192h92.376l-51.901,371.187,108.449-156.374h116.518l-140.397,198.388,87.024,231.991h-112.572s-49.658-146.07-68.977-200.482l-27.963,200.482h-92.423Z"/>
    <path class="cls-2" d="M129.874,910.167l90.458-649.492,92.404.006-52.524,375.465,108.466-156.373h116.508l-140.389,198.392,87.026,232.002h-112.58s-49.655-146.087-68.984-200.5l-27.965,200.5h-92.42Z"/>
    <path class="cls-2" d="M786.873,123.339c5.247-1.45,2.736,2.597,1.794,5.345-.438,1.268-.697,11.266-1.794,14.259-.757,2.073-13.522,13.665-16.03,16.046-16.295,15.474-102.353,94.438-124.782,124.779-14.283,19.324-45.22,76.812-48.124,83.777-5.292,12.425-6.678,24.428-14.253,33.868-6.352,7.913-33.858,20.75-40.999,19.608-10.266-1.64-20.766-29.973-26.74-37.432-6.343-7.92-30.138-26.128-32.083-28.523-4.94-6.086-9.593-11.927-5.356-21.389,3.443-7.69,29.721-21.535,41.004-17.822,8.958,2.948,26.163,47.047,33.818,41.131,19.913-15.393,32.551-43.26,48.178-62.523,38.405-47.336,120.297-126.811,167.546-160.434,5.223-3.715,12.199-9.188,17.821-10.69"/>
    <path class="cls-2" d="M1016.064,1016.064H61.103V61.105h954.961v954.959ZM1036.064,41.105H41.103v994.959h994.961V41.105Z"/>
  </g>
</svg>